# xmcd CD database file
#
# Track frame offsets:
#	183
#	14490
#	16635
#	28940
#	40833
#	42265
#	56150
#	70050
#	83770
#	84805
#	85695
#	99310
#	121633
#	124038
#	125258
#	130135
#	131370
#	136628
#	152815
#	165420
#	168358
#	183370
#	199918
#	201180
#	227375
#	232268
#	257338
#	282605
#	305775
#
# Disc length: 4383 seconds
#
# Revision: 3
# Processed by: cddbd v1.5.2PL0 Copyright (c) Steve Scherf et al.
# Submitted via: CDex 1.70beta2
#
DISCID=76111d1d
DTITLE=Charlie Parker - Bird: The Complete Charlie Parker On Verve [CD10)
DYEAR=1990
DGENRE=Jazz
TTITLE0=Chi Chi (tk 1)
TTITLE1=Chi Chi (tk 2)
TTITLE2=Chi Chi (tk 3)
TTITLE3=Chi Chi (tk 4)
TTITLE4=Chi Chi (tk 5)
TTITLE5=Chi Chi (tk 6)
TTITLE6=I Remember You
TTITLE7=Now's The Time
TTITLE8=Confirmation (tk 1)
TTITLE9=Confirmation (tk 2)
TTITLE10=Confirmation (tk 3)
TTITLE11=I Get A Kick Out Of You (tk 1)
TTITLE12=I Get A Kick Out Of You (tk 2)
TTITLE13=I Get A Kick Out Of You (tk 3)
TTITLE14=I Get A Kick Out Of You (tk 4)
TTITLE15=I Get A Kick Out Of You (tk 5)
TTITLE16=I Get A Kick Out Of You (tk 6)
TTITLE17=I Get A Kick Out Of You (tk 7)
TTITLE18=Just One Of Those Things
TTITLE19=My Heart Belongs To Daddy (tk 1)
TTITLE20=My Heart Belongs To Daddy (tk 2)
TTITLE21=I've Got You Under My Skin
TTITLE22=Love For Sale (tk 1)
TTITLE23=Love For Sale (tk 2)
TTITLE24=Love For Sale (tk 3)
TTITLE25=Love For Sale (tk 4)
TTITLE26=Love For Sale (tk 5)
TTITLE27=I Love Paris (tk 2)
TTITLE28=I Love Paris (tk 3)
EXTD=YEAR: 1990
EXTT0=
EXTT1=
EXTT2=
EXTT3=
EXTT4=
EXTT5=
EXTT6=
EXTT7=
EXTT8=
EXTT9=
EXTT10=
EXTT11=
EXTT12=
EXTT13=
EXTT14=
EXTT15=
EXTT16=
EXTT17=
EXTT18=
EXTT19=
EXTT20=
EXTT21=
EXTT22=
EXTT23=
EXTT24=
EXTT25=
EXTT26=
EXTT27=
EXTT28=
PLAYORDER=
